# xmcd
#
# Track frame offsets: 
#        150
#        17490
#        35888
#        55402
#
# Disc length: 1021 seconds
#
# Revision: 0
# Processed by: cddbd v1.5.2PL0 Copyright (c) Steve Scherf et al.
# Submitted via: ExactAudioCopyFreeDBPlugin 1.0
#
DISCID=2f03fb04
DTITLE=よしむらひらく - 井の頭 EP
DYEAR=2013
DGENRE=Blues
TTITLE0=watarirouka
TTITLE1=ソングフォーミー
TTITLE2=井の頭
TTITLE3=つきのうみ
EXTD=
EXTT0=
EXTT1=
EXTT2=
EXTT3=
PLAYORDER=
